<svg width="302" height="15" fill="none" xmlns="http://www.w3.org/2000/svg"><path d="M7.272 14.18a6.394 6.394 0 0 1-3.258-.864 6.724 6.724 0 0 1-2.358-2.358A6.394 6.394 0 0 1 .792 7.7c0-1.176.288-2.256.864-3.24a6.532 6.532 0 0 1 2.358-2.358 6.294 6.294 0 0 1 3.258-.882 6.2 6.2 0 0 1 3.24.882A6.352 6.352 0 0 1 12.87 4.46a6.2 6.2 0 0 1 .882 3.24 6.294 6.294 0 0 1-.882 3.258 6.532 6.532 0 0 1-2.358 2.358 6.298 6.298 0 0 1-3.24.864Zm0-1.44c.9 0 1.728-.228 2.484-.684a5.077 5.077 0 0 0 1.8-1.836 5.01 5.01 0 0 0 .666-2.52c0-.912-.222-1.752-.666-2.52a5.077 5.077 0 0 0-1.8-1.836 4.72 4.72 0 0 0-2.484-.684c-.912 0-1.746.228-2.502.684a4.897 4.897 0 0 0-1.8 1.836 5.053 5.053 0 0 0-.648 2.52c0 .912.216 1.752.648 2.52a5.077 5.077 0 0 0 1.8 1.836c.756.456 1.59.684 2.502.684Zm0-1.584c-.912 0-1.644-.258-2.196-.774-.54-.516-.828-1.194-.864-2.034l-.018-.666.018-.666c.036-.84.324-1.518.864-2.034.552-.516 1.284-.774 2.196-.774.672 0 1.236.108 1.692.324.468.216.816.492 1.044.828.24.336.366.678.378 1.026v.036a.341.341 0 0 1-.126.27.407.407 0 0 1-.27.09H8.802c-.132 0-.228-.03-.288-.09a1.07 1.07 0 0 1-.162-.288.968.968 0 0 0-.396-.468c-.168-.108-.396-.162-.684-.162-.684 0-1.05.432-1.098 1.296l-.018.612.018.612c.048.864.414 1.296 1.098 1.296.288 0 .516-.048.684-.144.168-.108.3-.276.396-.504.06-.12.12-.21.18-.27.06-.06.15-.09.27-.09H9.99a.39.39 0 0 1 .288.108c.084.072.12.168.108.288-.012.348-.138.69-.378 1.026-.228.324-.576.6-1.044.828-.468.216-1.032.324-1.692.324ZM28.582 14h-8.605v-1.468l4.263-4.65c.616-.685 1.052-1.256 1.31-1.713.264-.463.395-.926.395-1.389 0-.61-.172-1.101-.518-1.476-.34-.375-.8-.563-1.38-.563-.692 0-1.228.211-1.608.633-.381.422-.572.999-.572 1.731h-2.136c0-.779.176-1.479.528-2.1a3.688 3.688 0 0 1 1.52-1.46c.662-.345 1.424-.518 2.285-.518 1.243 0 2.221.314 2.936.94.72.622 1.081 1.483 1.081 2.585 0 .638-.182 1.31-.545 2.012-.357.698-.946 1.492-1.767 2.382l-3.128 3.349h5.941V14Zm9.967-5.388c0 1.84-.346 3.229-1.037 4.166-.686.932-1.732 1.398-3.138 1.398-1.383 0-2.426-.454-3.129-1.363-.697-.914-1.055-2.264-1.072-4.051V6.547c0-1.84.343-3.22 1.028-4.14.692-.92 1.743-1.38 3.155-1.38 1.4 0 2.444.449 3.13 1.345.69.897 1.045 2.238 1.063 4.025v2.215Zm-2.136-2.39c0-1.201-.164-2.08-.492-2.637-.328-.563-.85-.844-1.565-.844-.697 0-1.21.267-1.538.8-.328.527-.5 1.354-.518 2.479v2.9c0 1.195.167 2.086.5 2.672.335.586.86.879 1.574.879.686 0 1.192-.27 1.52-.809.329-.545.502-1.394.52-2.549V6.222ZM49.043 14h-8.605v-1.468l4.263-4.65c.615-.685 1.052-1.256 1.31-1.713.263-.463.395-.926.395-1.389 0-.61-.173-1.101-.518-1.476-.34-.375-.8-.563-1.38-.563-.692 0-1.228.211-1.609.633-.38.422-.57.999-.57 1.731h-2.137c0-.779.176-1.479.528-2.1a3.688 3.688 0 0 1 1.52-1.46c.662-.345 1.424-.518 2.285-.518 1.243 0 2.221.314 2.936.94.72.622 1.081 1.483 1.081 2.585 0 .638-.182 1.31-.545 2.012-.357.698-.946 1.492-1.767 2.382l-3.128 3.349h5.941V14Zm9.967-5.388c0 1.84-.346 3.229-1.037 4.166-.686.932-1.732 1.398-3.138 1.398-1.383 0-2.426-.454-3.129-1.363-.697-.914-1.055-2.264-1.072-4.051V6.547c0-1.84.343-3.22 1.028-4.14.691-.92 1.743-1.38 3.155-1.38 1.4 0 2.444.449 3.13 1.345.69.897 1.045 2.238 1.063 4.025v2.215Zm-2.136-2.39c0-1.201-.164-2.08-.492-2.637-.328-.563-.85-.844-1.565-.844-.697 0-1.21.267-1.538.8-.328.527-.5 1.354-.518 2.479v2.9c0 1.195.167 2.086.5 2.672.335.586.86.879 1.574.879.685 0 1.192-.27 1.52-.809.329-.545.501-1.394.519-2.549V6.222Zm16.33 2.065h-5.256v3.938h6.144V14h-8.367V1.203h8.305v1.793h-6.082V6.53h5.256v1.758Zm5.906-.668 1.81-3.129h2.374l-2.91 4.685L83.392 14h-2.356l-1.898-3.252L77.247 14h-2.373l3.006-4.825-2.9-4.685h2.355l1.775 3.13Zm9.65 6.557c-1.353 0-2.451-.425-3.295-1.275-.838-.855-1.257-1.992-1.257-3.41v-.263c0-.95.182-1.796.545-2.54.37-.75.885-1.334 1.547-1.75a4.078 4.078 0 0 1 2.215-.624c1.295 0 2.294.414 2.997 1.24.709.826 1.063 1.995 1.063 3.507v.86h-6.214c.065.786.325 1.407.783 1.864.462.457 1.042.686 1.74.686.978 0 1.775-.396 2.39-1.187l1.152 1.099a3.87 3.87 0 0 1-1.53 1.327c-.632.31-1.344.466-2.135.466Zm-.254-8.148c-.586 0-1.06.205-1.424.616-.357.41-.586.981-.685 1.713h4.069V8.2c-.047-.715-.237-1.254-.572-1.617-.334-.37-.796-.554-1.388-.554Zm9.641 6.443c.534 0 .976-.156 1.328-.466.351-.31.539-.695.562-1.152h2.013a3.163 3.163 0 0 1-.554 1.662c-.346.51-.814.914-1.406 1.212a4.191 4.191 0 0 1-1.916.449c-1.33 0-2.385-.43-3.164-1.292-.78-.861-1.17-2.051-1.17-3.569v-.22c0-1.447.388-2.604 1.161-3.471.773-.873 1.828-1.31 3.164-1.31 1.13 0 2.051.332 2.76.994.715.656 1.09 1.52 1.125 2.592h-2.013c-.023-.545-.21-.993-.562-1.344-.346-.352-.788-.528-1.328-.528-.69 0-1.224.252-1.6.756-.374.498-.565 1.257-.57 2.277v.342c0 1.032.184 1.802.553 2.312.375.504.914.756 1.617.756Zm11.277.597c-.627.739-1.518 1.108-2.672 1.108-1.031 0-1.814-.302-2.347-.905-.527-.604-.791-1.477-.791-2.62v-6.16h2.136v6.134c0 1.207.501 1.81 1.503 1.81 1.037 0 1.737-.372 2.101-1.116V4.49h2.135V14h-2.012l-.053-.932Zm6.917-10.89V4.49h1.679v1.582h-1.679v5.309c0 .363.07.627.211.79.146.16.404.238.773.238.246 0 .495-.03.747-.088v1.653a5.256 5.256 0 0 1-1.406.202c-1.641 0-2.461-.905-2.461-2.716V6.072h-1.564V4.49h1.564V2.18h2.136ZM121.931 14h-2.136V4.49h2.136V14Zm-2.268-11.98c0-.328.103-.6.308-.817.211-.217.509-.325.896-.325s.686.108.897.325c.211.217.316.49.316.818 0 .322-.105.591-.316.808-.211.211-.51.317-.897.317s-.685-.106-.896-.317a1.132 1.132 0 0 1-.308-.808Zm7.954 9.273 2.013-6.803h2.206L128.54 14h-1.854l-3.323-9.51h2.215l2.039 6.803Zm9.624 2.883c-1.353 0-2.452-.425-3.296-1.275-.838-.855-1.257-1.992-1.257-3.41v-.263c0-.95.182-1.796.545-2.54.37-.75.885-1.334 1.547-1.75a4.08 4.08 0 0 1 2.215-.624c1.295 0 2.294.414 2.997 1.24.709.826 1.064 1.995 1.064 3.507v.86h-6.214c.064.786.325 1.407.782 1.864.463.457 1.043.686 1.74.686.979 0 1.776-.396 2.391-1.187l1.151 1.099a3.869 3.869 0 0 1-1.529 1.327c-.633.31-1.345.466-2.136.466Zm-.255-8.148c-.586 0-1.06.205-1.424.616-.357.41-.585.981-.685 1.713h4.069V8.2c-.047-.715-.237-1.254-.571-1.617-.334-.37-.797-.554-1.389-.554Zm19.143-3.032h-3.99V14h-2.206V2.996h-3.955V1.203h10.151v1.793Zm5.88 3.445a5.28 5.28 0 0 0-.87-.07c-.979 0-1.638.375-1.978 1.125V14h-2.136V4.49h2.039l.053 1.064c.516-.826 1.231-1.24 2.145-1.24.304 0 .556.041.756.123l-.009 2.004ZM168.776 14c-.093-.182-.175-.477-.246-.888-.679.71-1.511 1.064-2.496 1.064-.955 0-1.734-.273-2.338-.818-.603-.545-.905-1.218-.905-2.021 0-1.014.375-1.79 1.125-2.33.756-.544 1.834-.817 3.234-.817h1.31v-.624c0-.492-.138-.884-.413-1.177-.276-.3-.694-.449-1.257-.449-.486 0-.885.123-1.195.37-.311.24-.466.547-.466.922h-2.136c0-.521.173-1.007.519-1.459.345-.457.814-.814 1.406-1.072.598-.258 1.263-.387 1.995-.387 1.113 0 2.001.282 2.663.844.662.557 1.002 1.342 1.02 2.356v4.289c0 .855.12 1.538.36 2.048V14h-2.18Zm-2.346-1.538c.422 0 .817-.103 1.186-.308a2.05 2.05 0 0 0 .844-.826V9.535h-1.151c-.791 0-1.386.138-1.785.413-.398.276-.597.665-.597 1.17 0 .41.135.737.404.984.275.24.642.36 1.099.36Zm6.003-3.287c0-1.465.339-2.64 1.019-3.525.68-.89 1.591-1.336 2.734-1.336 1.007 0 1.822.352 2.443 1.055V.5h2.136V14h-1.934l-.105-.984c-.639.773-1.492 1.16-2.558 1.16-1.113 0-2.016-.449-2.707-1.345-.686-.896-1.028-2.115-1.028-3.656Zm2.135.184c0 .967.185 1.723.554 2.268.375.539.905.808 1.591.808.873 0 1.512-.39 1.916-1.168v-4.06c-.393-.763-1.025-1.144-1.899-1.144-.691 0-1.224.276-1.599.827-.375.545-.563 1.368-.563 2.47Zm12.613 4.817c-1.354 0-2.452-.425-3.296-1.275-.838-.855-1.257-1.992-1.257-3.41v-.263c0-.95.182-1.796.545-2.54.369-.75.885-1.334 1.547-1.75a4.077 4.077 0 0 1 2.215-.624c1.294 0 2.294.414 2.997 1.24.709.826 1.063 1.995 1.063 3.507v.86h-6.214c.065.786.325 1.407.782 1.864.463.457 1.043.686 1.741.686.978 0 1.775-.396 2.39-1.187l1.152 1.099a3.872 3.872 0 0 1-1.53 1.327c-.632.31-1.344.466-2.135.466Zm-.255-8.148c-.586 0-1.061.205-1.424.616-.357.41-.586.981-.686 1.713h4.07V8.2c-.047-.715-.238-1.254-.572-1.617-.334-.37-.796-.554-1.388-.554ZM199.696 14h-2.215V1.203h2.215V14Zm4.509-9.51.062 1.099c.703-.85 1.626-1.275 2.768-1.275 1.981 0 2.988 1.134 3.024 3.402V14h-2.136V7.839c0-.604-.132-1.049-.396-1.336-.257-.293-.682-.44-1.274-.44-.861 0-1.503.39-1.925 1.17V14h-2.136V4.49h2.013Zm10.714-2.311V4.49h1.679v1.582h-1.679v5.309c0 .363.07.627.211.79.146.16.404.238.773.238.246 0 .495-.03.747-.088v1.653a5.256 5.256 0 0 1-1.406.202c-1.64 0-2.461-.905-2.461-2.716V6.072h-1.564V4.49h1.564V2.18h2.136Zm7.506 11.997c-1.354 0-2.452-.425-3.296-1.275-.838-.855-1.257-1.992-1.257-3.41v-.263c0-.95.182-1.796.545-2.54.369-.75.885-1.334 1.547-1.75a4.077 4.077 0 0 1 2.215-.624c1.295 0 2.294.414 2.997 1.24.709.826 1.063 1.995 1.063 3.507v.86h-6.214c.065.786.326 1.407.783 1.864.463.457 1.043.686 1.74.686.978 0 1.775-.396 2.39-1.187l1.152 1.099a3.875 3.875 0 0 1-1.529 1.327c-.633.31-1.345.466-2.136.466Zm-.255-8.148c-.586 0-1.061.205-1.424.616-.357.41-.586.981-.685 1.713h4.069V8.2c-.047-.715-.237-1.254-.571-1.617-.334-.37-.797-.554-1.389-.554Zm10.714.413a5.288 5.288 0 0 0-.87-.07c-.979 0-1.638.375-1.978 1.125V14H227.9V4.49h2.039l.053 1.064c.516-.826 1.231-1.24 2.145-1.24.304 0 .556.041.756.123l-.009 2.004Zm3.331-1.95.061 1.098c.703-.85 1.626-1.275 2.769-1.275 1.98 0 2.988 1.134 3.023 3.402V14h-2.135V7.839c0-.604-.132-1.049-.396-1.336-.258-.293-.683-.44-1.274-.44-.862 0-1.503.39-1.925 1.17V14h-2.136V4.49h2.013ZM249.935 14c-.094-.182-.176-.477-.247-.888-.679.71-1.511 1.064-2.496 1.064-.955 0-1.734-.273-2.338-.818-.603-.545-.905-1.218-.905-2.021 0-1.014.375-1.79 1.125-2.33.756-.544 1.834-.817 3.235-.817h1.309v-.624c0-.492-.138-.884-.413-1.177-.275-.3-.694-.449-1.257-.449-.486 0-.885.123-1.195.37-.311.24-.466.547-.466.922h-2.136c0-.521.173-1.007.519-1.459.346-.457.814-.814 1.406-1.072.598-.258 1.263-.387 1.995-.387 1.114 0 2.001.282 2.663.844.662.557 1.002 1.342 1.02 2.356v4.289c0 .855.12 1.538.36 2.048V14h-2.179Zm-2.347-1.538c.422 0 .817-.103 1.186-.308.375-.205.657-.48.844-.826V9.535h-1.151c-.791 0-1.386.138-1.784.413-.399.276-.598.665-.598 1.17 0 .41.135.737.404.984.276.24.642.36 1.099.36Zm9.079-10.283V4.49h1.679v1.582h-1.679v5.309c0 .363.07.627.211.79.146.16.404.238.773.238.246 0 .495-.03.747-.088v1.653a5.256 5.256 0 0 1-1.406.202c-1.64 0-2.461-.905-2.461-2.716V6.072h-1.564V4.49h1.564V2.18h2.136ZM262.257 14h-2.136V4.49h2.136V14Zm-2.268-11.98c0-.328.103-.6.308-.817.211-.217.51-.325.896-.325.387 0 .686.108.897.325.211.217.316.49.316.818 0 .322-.105.591-.316.808-.211.211-.51.317-.897.317-.386 0-.685-.106-.896-.317a1.132 1.132 0 0 1-.308-.808Zm4.201 7.137c0-.931.185-1.77.554-2.513.369-.75.888-1.325 1.556-1.723.668-.404 1.435-.607 2.303-.607 1.283 0 2.323.414 3.12 1.24.802.826 1.236 1.922 1.3 3.287l.009.5c0 .938-.181 1.776-.545 2.514a3.956 3.956 0 0 1-1.547 1.714c-.668.405-1.441.607-2.32.607-1.342 0-2.417-.446-3.225-1.336-.803-.897-1.205-2.089-1.205-3.577v-.106Zm2.136.185c0 .978.202 1.746.607 2.303.404.55.966.826 1.687.826.721 0 1.28-.281 1.679-.844.404-.563.606-1.386.606-2.47 0-.96-.208-1.722-.624-2.285-.41-.562-.969-.844-1.678-.844-.698 0-1.251.279-1.662.835-.41.551-.615 1.377-.615 2.479ZM276.82 4.49l.062 1.099c.703-.85 1.626-1.275 2.768-1.275 1.981 0 2.989 1.134 3.024 3.402V14h-2.136V7.839c0-.604-.132-1.049-.395-1.336-.258-.293-.683-.44-1.275-.44-.861 0-1.503.39-1.925 1.17V14h-2.135V4.49h2.012ZM290.54 14c-.094-.182-.176-.477-.246-.888a3.325 3.325 0 0 1-2.496 1.064c-.955 0-1.735-.273-2.338-.818-.604-.545-.905-1.218-.905-2.021 0-1.014.375-1.79 1.125-2.33.756-.544 1.834-.817 3.234-.817h1.31v-.624c0-.492-.138-.884-.413-1.177-.276-.3-.695-.449-1.257-.449-.487 0-.885.123-1.196.37-.31.24-.465.547-.465.922h-2.136c0-.521.173-1.007.518-1.459.346-.457.815-.814 1.407-1.072.597-.258 1.262-.387 1.995-.387 1.113 0 2.001.282 2.663.844.662.557 1.002 1.342 1.019 2.356v4.289c0 .855.12 1.538.361 2.048V14h-2.18Zm-2.347-1.538c.422 0 .818-.103 1.187-.308a2.05 2.05 0 0 0 .844-.826V9.535h-1.152c-.791 0-1.385.138-1.784.413-.398.276-.598.665-.598 1.17 0 .41.135.737.405.984.275.24.641.36 1.098.36ZM296.868 14h-2.136V.5h2.136V14Zm3.665-2.25c.399 0 .706.114.923.343.217.222.325.504.325.844 0 .334-.108.612-.325.835-.217.216-.524.325-.923.325-.381 0-.682-.109-.905-.325-.223-.217-.334-.496-.334-.835 0-.34.108-.622.325-.844.217-.229.522-.343.914-.343Z" fill="#EEE"/></svg>